<?xml version="1.0" standalone="no"?>
<!DOCTYPE svg PUBLIC "-//W3C//DTD SVG 20010904//EN"
 "http://www.w3.org/TR/2001/REC-SVG-20010904/DTD/svg10.dtd">
<svg version="1.0" xmlns="http://www.w3.org/2000/svg"
 width="1200.000000pt" height="1200.000000pt" viewBox="0 0 1200.000000 1200.000000"
 preserveAspectRatio="xMidYMid meet">
<metadata>
Created by potrace 1.14, written by Peter Selinger 2001-2017
</metadata>
<g transform="translate(0.000000,1200.000000) scale(0.100000,-0.100000)"
fill="#000000" stroke="none">
<path d="M5222 10504 c-115 -24 -218 -83 -318 -182 -96 -95 -307 -405 -439
-647 -65 -118 -215 -426 -215 -440 0 -3 -11 -28 -24 -57 -58 -129 -210 -580
-231 -687 -2 -9 -10 -44 -19 -78 -37 -143 -94 -464 -111 -628 -4 -33 -8 -71
-10 -85 -13 -82 -19 -239 -19 -495 -1 -331 5 -367 77 -515 33 -66 60 -102 122
-165 133 -134 239 -176 425 -172 94 3 128 8 188 29 201 72 357 222 414 397 19
61 21 91 23 371 2 168 5 334 9 370 19 205 17 191 37 305 25 143 109 489 123
502 2 3 7 -6 11 -19 4 -13 18 -45 30 -73 13 -27 53 -117 90 -200 110 -245 292
-619 389 -799 20 -36 52 -96 72 -133 213 -395 272 -485 364 -557 174 -136 381
-181 580 -126 202 56 395 281 434 504 8 42 8 176 1 211 -21 103 -40 147 -149
334 -36 63 -66 115 -66 116 0 2 -17 34 -39 72 -146 260 -350 670 -497 998 -64
144 -234 563 -249 615 -4 14 -13 39 -20 55 -35 82 -141 393 -220 644 -70 224
-122 313 -240 410 -58 48 -169 103 -240 121 -72 18 -210 20 -283 4z"/>
<path d="M8387 7084 c-1 -1 -58 -4 -127 -7 -154 -6 -245 -27 -342 -76 -87 -45
-102 -56 -183 -136 -104 -104 -163 -245 -163 -389 0 -182 68 -347 198 -477
126 -126 262 -180 438 -174 116 4 731 4 807 0 199 -10 294 -16 325 -20 19 -2
71 -7 116 -10 137 -10 138 -12 94 -62 -105 -117 -433 -520 -619 -758 -73 -93
-138 -177 -145 -185 -59 -73 -288 -383 -304 -411 -32 -58 -54 -148 -57 -244
-13 -313 180 -570 480 -641 117 -27 275 -11 385 39 96 44 228 155 298 252 115
158 409 537 544 700 9 11 63 76 119 145 100 121 387 460 399 470 3 3 64 70
135 150 71 80 148 165 171 190 23 25 54 59 69 75 15 17 73 80 130 140 136 146
147 159 188 235 73 134 96 299 63 458 -44 211 -197 381 -401 445 -44 13 -130
32 -130 27 0 -1 -13 3 -28 9 -15 6 -40 13 -55 16 -15 3 -40 7 -57 10 -16 4
-59 13 -95 21 -36 8 -81 17 -100 20 -19 3 -42 7 -50 9 -17 5 -240 45 -285 51
-16 2 -41 6 -54 9 -14 2 -61 9 -105 15 -45 6 -92 13 -106 15 -14 2 -50 7 -80
10 -30 3 -66 8 -80 10 -35 5 -153 18 -270 29 -25 3 -85 7 -135 11 -49 3 -110
8 -135 10 -122 11 -844 27 -853 19z"/>
<path d="M3275 6352 c-16 -1 -64 -9 -105 -17 -41 -8 -86 -16 -100 -19 -14 -2
-47 -10 -75 -16 -27 -6 -61 -14 -75 -16 -52 -10 -348 -87 -425 -111 -140 -43
-360 -115 -370 -122 -5 -3 -14 -6 -20 -7 -16 -2 -302 -118 -405 -164 -135 -60
-382 -181 -470 -230 -41 -23 -104 -58 -140 -78 -150 -82 -267 -161 -326 -220
-144 -142 -211 -353 -178 -559 18 -112 87 -245 171 -328 79 -78 321 -223 943
-565 544 -299 1373 -711 1825 -907 216 -93 403 -94 575 -1 230 124 326 298
324 583 -1 167 -46 293 -143 397 -63 69 -102 93 -271 169 -133 60 -214 98
-387 180 -138 65 -789 390 -857 428 -28 16 -88 47 -133 71 -46 23 -83 45 -83
49 0 11 472 157 569 176 10 2 46 10 82 19 35 9 143 32 238 51 96 19 195 45
220 57 167 79 296 259 335 468 35 187 -30 387 -174 531 -77 78 -167 130 -271
159 -70 19 -202 30 -274 22z"/>
</g>
</svg>
